PathFileType	4	(X/Y/Z)	Patient4_TMGait_0pt4_03_right_35.trc.trc
DataRate	CameraRate	NumFrames	NumMarkers	Units	OrigDataRate	OrigDataStartFrame	OrigNumFrames
74.468085106383	74.468085106383	4	33	mm	74.468085106383	71	       141
Frame#	Time	Sacral			L.Shoulder			Chest			R.Shoulder			Neck			R.ASIS			L.ASIS			R.Thigh.Superior			R.Thigh.Lateral			R.Thigh.Inferior			R.Patella			L.Thigh.Superior			L.Thigh.Lateral			L.Thigh.Inferior			L.Patella			L.Shank.Superior			L.Shank.Lateral			L.Shank.Inferior			R.Shank.Superior			R.Shank.Lateral			R.Shank.Inferior			R.Heel			R.Midfoot.Superior			R.Midfoot.Lateral			R.Toe			L.Heel			L.Midfoot.Lateral			L.Midfoot.Superior			L.Toe			L.Elbow			L.Wrist			R.Elbow			R.Wrist			
		X1	Y1	Z1	X2	Y2	Z2	X3	Y3	Z3	X4	Y4	Z4	X5	Y5	Z5	X6	Y6	Z6	X7	Y7	Z7	X8	Y8	Z8	X9	Y9	Z9	X10	Y10	Z10	X11	Y11	Z11	X12	Y12	Z12	X13	Y13	Z13	X14	Y14	Z14	X15	Y15	Z15	X16	Y16	Z16	X17	Y17	Z17	X18	Y18	Z18	X19	Y19	Z19	X20	Y20	Z20	X21	Y21	Z21	X22	Y22	Z22	X23	Y23	Z23	X24	Y24	Z24	X25	Y25	Z25	X26	Y26	Z26	X27	Y27	Z27	X28	Y28	Z28	X29	Y29	Z29	X30	Y30	Z30	X31	Y31	Z31	X32	Y32	Z32	X33	Y33	Z33	

71	46.590000000000	860.643004362810	1003.988666379805	522.383299688648	1003.313481083289	1429.261237161067	312.566110993160	1135.158210656468	1362.401713227390	451.687688733580	1086.366797447433	1437.495917403173	637.805058790001	1016.232777772738	1492.231962531043	466.753163692129	1102.440874896759	936.214458782025	603.078606365828	1048.507086848179	958.101592982721	332.938908494865	1102.177754423334	725.389284811443	575.009626737116	1006.401674075650	628.571477488500	645.612511368275	1061.243337310154	565.019690406921	560.675466962543	1045.471348585650	480.267613911936	567.566240222043	1121.332575382666	767.470615795305	354.032291798574	1061.224736948623	640.453713066215	281.443238981968	1167.080488693996	578.701086945546	335.605405179849	1191.992720920280	513.898051541503	329.705078759708	1171.510792875893	443.089030497176	320.655645477321	1096.526304564835	316.038555092936	274.558883572416	1184.012422617821	212.845593164952	321.489969543169	1008.335318810636	395.852787710537	576.448824684024	930.499501288476	300.122950596561	644.144791150460	955.698312816247	201.697811563385	576.436897695780	807.717443247180	43.370724184583	551.269666094197	978.864988433034	95.293212532089	583.869003235427	891.906920031778	36.680590334841	624.838709014042	1100.140848153724	42.022726167677	610.035233425793	1096.425420567634	39.736197213637	365.443357942492	1166.134139386817	39.643059334191	281.750881017020	1242.997236004984	112.083996731653	299.712925575155	1372.625025393650	73.943768723394	266.425233373394	881.653669383961	1090.994705633463	231.970275020895	897.702919870005	828.946399198667	227.752887785817	1215.855374886302	1123.779593068934	756.212432696590	1434.398972245412	1211.066727658461	673.249050486658	
72	46.603428571429	861.426816730934	1002.878484568887	520.291131787286	1002.752448174574	1428.316308600276	310.183707415515	1134.701626113397	1362.183597358119	449.528769355916	1085.335499661165	1437.115313280181	635.546815101155	1015.496546547287	1491.467591168461	464.431327712975	1103.327416135052	935.628281972348	601.527874907003	1049.687326243734	957.226443580230	331.424180442264	1102.211072407185	724.491016250034	573.797433550000	1005.449262778482	628.165484827327	644.308885156346	1060.019259168239	564.122794454826	559.714813034057	1043.614546016382	479.221087647114	566.510817919976	1122.380604487112	765.550746565116	351.900423838795	1059.484189658244	638.134168995142	281.555149408796	1165.980433482058	576.545029468396	334.404161496083	1190.004268244803	511.515601468405	329.500615706411	1169.406876209264	440.597160927759	320.845496133444	1093.449967527210	313.752072238424	276.341387406508	1180.715735994881	210.465042409672	323.039065578588	1005.669470254912	395.147064964260	575.555955665824	927.093191618786	300.245186192739	643.566780758610	951.397224976282	201.433907428772	576.138400809196	802.359917181912	43.594671941949	551.426965421753	973.545197453142	95.304701800892	583.924220350507	886.551707959098	36.707966778533	624.893287264508	1094.748250340095	41.819784081397	610.126674655310	1091.935800361121	39.311797488554	368.156257473055	1161.171292233761	38.494441748226	284.043718738811	1239.401497477616	109.098838417855	302.096130919107	1368.197133703080	68.714260618453	267.964652441650	883.139106100180	1089.473797811742	228.636856002730	903.596926916654	827.675433199842	222.925112663839	1215.716782827296	1122.496578448270	752.049007708073	1438.314613942528	1202.085253686782	670.134477135858	
73	46.616857142857	862.252552548441	1001.783540916668	517.962218922098	1002.222663579745	1427.362464484628	307.593599918915	1134.274447135020	1362.029238435905	447.198916640665	1084.272013678810	1436.808227908642	633.105439912730	1014.772700681008	1490.730335285575	461.895738435185	1104.276031478437	935.050328545427	599.793011647741	1050.973939298102	956.455638921282	329.742289464318	1102.403951806556	723.622786029886	572.371722784379	1004.727936844723	627.764815510474	642.819504175085	1059.066164262710	563.229766809282	558.575774233009	1042.051022879864	478.124649267713	565.277781459154	1123.810008814616	763.997291974409	349.718956377730	1058.538921522076	636.194834207385	281.517172969447	1165.667470882979	574.914223504962	333.222999805280	1188.678970472022	509.385116240744	329.292297969774	1167.785906457258	438.209200492000	320.955700606895	1090.478917908534	311.859219126551	277.820041481990	1176.966597742988	208.129956897877	324.486057804541	1003.232970857396	394.418017478459	574.518713860251	923.878317051391	300.427643705616	642.885147065239	947.203816791110	201.203770392919	575.794601528107	797.015907966255	43.951608416488	551.617001300197	968.274332206849	95.357550772614	583.994920527251	881.222286371591	36.787337537672	624.962831467827	1089.378710430991	41.574818363348	610.225151505901	1086.263221445814	39.059705805209	370.608162393709	1155.024924944080	37.609836108013	286.054376856935	1234.738983810552	106.269807008826	304.359510324294	1362.692148136223	63.509825067256	269.271372966668	885.000271017134	1087.823408338812	225.038961103910	910.084969389589	826.385147645224	217.747298972962	1215.063975529401	1121.216015691639	748.089265441606	1441.821570380620	1191.903437704855	667.241585034780	
74	46.630285714286	863.085848787660	1000.765221974468	515.424379197101	1001.748451925350	1426.445248477418	304.816939447145	1133.902893089396	1361.938952677921	444.695676279798	1083.255392991471	1436.593532364892	630.483879060694	1014.110175671430	1490.059275378100	459.163482693767	1105.247531228647	934.518007784546	597.856815695713	1052.293651522220	955.827753337635	327.863941867432	1102.738824680035	722.824978317052	570.737258923654	1004.255900251282	627.387585977419	641.144238304715	1058.415862252657	562.372167471701	557.250617447909	1040.838853935154	476.988324622766	563.884884335135	1125.518426131689	762.873252291854	347.537106234034	1058.413932436891	634.729973701310	281.231667867048	1166.081381247035	573.836986344683	332.052821357287	1187.975045242744	507.592893555374	329.054661167318	1166.686940141902	436.038450441828	320.935380154040	1087.864048636823	310.394163622022	278.782987546252	1173.072853737637	205.966304058215	325.708328260693	1001.066277563643	393.677728561744	573.346290954815	920.878740027838	300.693703421345	642.105842909710	943.137763791309	201.030657385795	575.413632034390	791.688691309645	44.494116828545	551.841173701463	963.071069270712	95.462742121093	584.088948869723	875.924092544028	36.943693535353	625.051158072211	1084.041065424359	41.287720633520	610.329921472576	1079.926359158022	38.920538315184	372.608301117084	1148.278602987634	36.970532744188	287.651149015240	1229.424834394921	103.779290273636	306.342338180439	1356.619129318396	58.745507514591	270.329158563541	887.250688396112	1086.095111683859	221.202955191898	917.134531908737	825.134565401114	212.277091261985	1213.956842427970	1119.958860802263	744.358614076675	1444.822676745325	1180.503778352208	664.612026221415	
